# xmcd
#
# Track frame offsets:
#	150
#	21032
#	40494
#	57755
#	76854
#	96065
#	116335
#	133178
#	147875
#	164717
#	182006
#	201523
#	220874
#	240586
#	253779
#	274411
#	293984
#	313808
#
# Disc length: 4425 seconds
#
# Revision: 1
# Processed by: cddbd v1.5PL3 Copyright (c) Steve Scherf et al.
# Submitted via: EasyCDDAExtractor 5.0.7
#
DISCID=13114712
DTITLE=Various Chinese - Nu Hong
DYEAR=1900
DGENRE=
TTITLE0=Nu Hong Mong Manh
TTITLE1=Tien Nhau Lan Cuoi
TTITLE2=Nhung Loi Doi Gian
TTITLE3=Xa Nhau Tu Bay
TTITLE4=999 Doa Hong
TTITLE5=Mot Thuo Yeu Nguoi
TTITLE6=tan Phai
TTITLE7=Lemon Tree
TTITLE8=Cuoc Tinh Van Dam
TTITLE9=Tinh Da Phai
TTITLE10=Nguoi Tinh Mua Dong
TTITLE11=Nhac Sau Moi Tim
TTITLE12=Mot Tinh Yeu
TTITLE13=Nguoi Yeu Dau
TTITLE14=Con Lai Noi Co Don
TTITLE15=Ngo Ai Ni
TTITLE16=Chiec La Mua Dong
TTITLE17=Vong Tay Mot Thuo
EXTD=
EXTT0=
EXTT1=
EXTT2=
EXTT3=
EXTT4=
EXTT5=
EXTT6=
EXTT7=
EXTT8=
EXTT9=
EXTT10=
EXTT11=
EXTT12=
EXTT13=
EXTT14=
EXTT15=
EXTT16=
EXTT17=
PLAYORDER=
